{"title":"AZHAR (2016) - Desi SCR - x264 - AC3 (Audio Cleaned) - DrC","uid":14616735,"size":1576464108,"categoryP":"video","categoryS":"movies","magnet":"?xt=urn:btih:dc32b57d54c7ad67188cc8335bd5dfce871a497b&amp;dn=AZHAR+%282016%29+-+Desi+SCR+-+x264+-+AC3+%28Audio+Cleaned%29+-+DrC&amp;tr=udp%3A%2F%2Ftracker.leechers-paradise.org%3A6969&amp;tr=udp%3A%2F%2Fzer0day.ch%3A1337&amp;tr=udp%3A%2F%2Fopen.demonii.com%3A1337&amp;tr=udp%3A%2F%2Ftracker.coppersurfer.tk%3A6969&amp;tr=udp%3A%2F%2Fexodus.desync.com%3A6969","seeders":1,"leechers":0,"uploader":"CDRiPD","files":3,"time":1463207312,"description":"AZHAR (2016) - Desi SCR - x264 - AC3 (Audio Cleaned) - DrC\r\n\r\n\r\n\r\n\r\nFormat                                   : Matroska\r\nFormat version                           : Version 2\r\nFile size                                : 1.46 GiB\r\nDuration                                 : 2h 10mn\r\nOverall bit rate mode                    : Variable\r\nOverall bit rate                         : 1 605 Kbps\r\n\r\nVideo\r\nID                                       : 1\r\nFormat                                   : AVC\r\nFormat/Info                              : Advanced Video Codec\r\nFormat profile                           :   \r\nFormat settings, CABAC                   : Yes\r\nFormat settings, ReFrames                : 4 frames\r\nCodec ID                                 : V_MPEG4/ISO/AVC\r\nDuration                                 : 2h 10mn\r\nBit rate mode                            : Variable\r\nBit rate                                 : 1 283 Kbps\r\nMaximum bit rate                         : 40.0 Mbps\r\nWidth                                    : 672 pixels\r\nHeight                                   : 272 pixels\r\nDisplay aspect ratio                     : 2.471\r\nFrame rate mode                          : Constant\r\nFrame rate                               : 25.000 fps\r\nColor space                              : YUV\r\nChroma subsampling                       : 4:2:0\r\nBit depth                                : 8 bits\r\nScan type                                : Progressive\r\nBits/(Pixel*Frame)                       : 0.281\r\nStream size                              : 1.16 GiB (80%)\r\nWriting library                          : x264 core 142 r2431 ac76440\r\n\r\nAudio\r\nID                                       : 2\r\nFormat                                   : AC-3\r\nFormat/Info                              : Audio Coding 3\r\nMode extension                           : CM (complete main)\r\nFormat settings, Endianness              : Big\r\nCodec ID                                 : A_AC3\r\nDuration                                 : 2h 10mn\r\nBit rate mode                            : Constant\r\nBit rate                                 : 320 Kbps\r\nChannel(s)                               : 6 channels\r\nChannel positions                        : Front: L C R, Side: L R, LFE\r\nSampling rate                            : 48.0 KHz\r\nFrame rate                               : 31.250 fps (1536 spf)\r\nCompression mode                         : Lossy\r\nStream size                              : 298 MiB (20%)\r\nLanguage                                 : Hindi\r\n\r\n\r\n\r\nScreen Shots:\r\n\r\n \nhttps://ititli.com/XPd \nhttps://ititli.com/XP0 \nhttps://ititli.com/XPA \nhttps://ititli.com/XPl \nhttps://ititli.com/XPm \nhttps://ititli.com/XPx \nhttps://ititli.com/XP7 \nhttps://ititli.com/XPC \nhttps://ititli.com/XPF \nhttps://ititli.com/XPJ \nhttps://ititli.com/XP5 \nhttps://ititli.com/XPB","torrent":{"xt":"urn:btih:dc32b57d54c7ad67188cc8335bd5dfce871a497b","amp;dn":"AZHAR+%282016%29+-+Desi+SCR+-+x264+-+AC3+%28Audio+Cleaned%29+-+DrC","amp;tr":["udp%3A%2F%2Ftracker.leechers-paradise.org%3A6969","udp%3A%2F%2Fzer0day.ch%3A1337","udp%3A%2F%2Fopen.demonii.com%3A1337","udp%3A%2F%2Ftracker.coppersurfer.tk%3A6969","udp%3A%2F%2Fexodus.desync.com%3A6969"],"infoHash":"dc32b57d54c7ad67188cc8335bd5dfce871a497b","infoHashBuffer":{"type":"Buffer","data":[220,50,181,125,84,199,173,103,24,140,200,51,91,213,223,206,135,26,73,123]},"announce":[],"urlList":[]}}